<?xml version="1.0" encoding="UTF-8"?>
<svg version="1.1" xmlns="http://www.w3.org/2000/svg" width="512" height="512">
<path d="M0 0 C7.433435 5.68439147 12.86382078 12.49996849 18.2265625 20.0703125 C18.68643555 20.71532715 19.14630859 21.3603418 19.62011719 22.02490234 C22.12645799 25.54514878 24.61502843 29.07745027 27.09375 32.6171875 C30.24458846 37.10935468 33.44697156 41.56293122 36.6640625 46.0078125 C37.2017627 46.75087646 37.73946289 47.49394043 38.29345703 48.25952148 C39.38612605 49.76874816 40.47906319 51.27778075 41.57226562 52.78662109 C44.35574452 56.62910362 47.13530849 60.4744122 49.9140625 64.3203125 C50.45796631 65.07304443 51.00187012 65.82577637 51.56225586 66.60131836 C55.19434013 71.63149952 58.80704488 76.67508614 62.40771484 81.7277832 C66.47176321 87.42551646 70.57174254 93.0971922 74.67382812 98.76757812 C76.19268795 100.86756693 77.70967598 102.96889811 79.2265625 105.0703125 C79.69900391 105.72169189 80.17144531 106.37307129 80.65820312 107.04418945 C83.02079253 110.31861765 85.12446459 113.60591267 87.0703125 117.14453125 C88.44727289 119.4379146 90.01508184 121.54173459 91.6015625 123.6953125 C97.47577002 132.02441271 101.09488838 141.37242916 104.6015625 150.8828125 C104.99613647 151.92223999 104.99613647 151.92223999 105.39868164 152.98266602 C107.6056752 159.19563109 108.53114917 165.37769028 105.6015625 171.5703125 C101.09624102 180.69084135 95.36172065 186.50273343 86.2265625 191.0703125 C88.50271962 198.98837656 91.14604975 206.75527971 93.875 214.52734375 C94.32923014 215.82538532 94.78328685 217.12348759 95.23718262 218.42164612 C96.19553584 221.16152333 97.15521119 223.90093299 98.11566162 226.64007568 C99.36193892 230.19603727 100.6029111 233.75382334 101.84198189 237.31230164 C106.32748792 250.19385102 110.81559579 263.07012938 115.5703125 275.85546875 C116.47236766 278.30888231 117.37293632 280.762837 118.27325439 283.21688843 C119.06918268 285.35820003 119.89361553 287.4868416 120.72021484 289.61645508 C124.76122124 300.40382352 126.49489863 312.42008592 122.6640625 323.5703125 C118.28574357 332.54052689 112.43617514 338.96462855 103.2265625 343.0703125 C102.2365625 343.0703125 101.2465625 343.0703125 100.2265625 343.0703125 C100.62746094 343.49699219 101.02835937 343.92367188 101.44140625 344.36328125 C119.84116838 364.59884731 125.36720761 384.90393885 124.42626953 411.97460938 C122.78787474 437.37173162 107.19206954 459.75609292 89.01806641 476.51269531 C75.58102891 488.19548343 59.4459987 495.21149909 42.2265625 499.0703125 C41.45497803 499.2453833 40.68339355 499.4204541 39.88842773 499.60083008 C25.09095222 502.21071226 8.36956978 501.0850984 -5.7734375 496.0703125 C-7.39572266 495.50957031 -7.39572266 495.50957031 -9.05078125 494.9375 C-15.32058389 492.54975675 -20.34173421 489.49711369 -25.51953125 485.23046875 C-27.71879996 483.78682449 -27.71879996 483.78682449 -30.10546875 484.640625 C-31.42611328 485.34832031 -31.42611328 485.34832031 -32.7734375 486.0703125 C-33.89234375 486.65425781 -35.01125 487.23820312 -36.1640625 487.83984375 C-37.0924292 488.3337561 -37.0924292 488.3337561 -38.03955078 488.83764648 C-59.93846216 500.3745945 -87.09461316 504.70187611 -111.1328125 497.46484375 C-126.84388815 491.44676005 -138.17481045 482.77549578 -150.27929688 471.22436523 C-150.94509766 470.58958252 -151.61089844 469.9547998 -152.296875 469.30078125 C-152.89419434 468.72739014 -153.49151367 468.15399902 -154.10693359 467.56323242 C-155.91075224 465.87619413 -155.91075224 465.87619413 -158.7734375 464.0703125 C-162.72753463 464.43180866 -165.92733057 465.94148388 -169.47265625 467.66015625 C-170.58584229 468.19229736 -171.69902832 468.72443848 -172.84594727 469.27270508 C-173.43417267 469.55562408 -174.02239807 469.83854309 -174.62844849 470.1300354 C-197.2888614 480.98455697 -220.49369801 489.55136875 -244.7734375 496.0703125 C-245.65080566 496.31040039 -246.52817383 496.55048828 -247.43212891 496.79785156 C-264.13403753 501.25656677 -283.63406728 503.36887023 -299.7734375 496.0703125 C-301.38025391 495.35875 -301.38025391 495.35875 -303.01953125 494.6328125 C-319.47602592 486.56932395 -329.53049155 474.01083418 -336.01171875 457.05078125 C-336.45942123 455.88834396 -336.45942123 455.88834396 -336.91616821 454.7024231 C-340.34329068 445.71121421 -343.47259751 436.6168541 -346.59460449 427.51623535 C-348.44017075 422.13816165 -350.29837586 416.76445693 -352.15625 411.390625 C-352.53765137 410.28690552 -352.91905273 409.18318604 -353.31201172 408.04602051 C-356.975753 397.45771549 -360.70552942 386.89327571 -364.45391846 376.33468628 C-365.51860814 373.33392376 -366.58067438 370.33224432 -367.64208984 367.33032227 C-370.64355617 358.84786227 -373.65473616 350.36994551 -376.73907471 341.91720581 C-377.97242992 338.53246566 -379.19405015 335.1435533 -380.41418457 331.75402832 C-380.97548586 330.20504728 -381.5425447 328.65813718 -382.11608887 327.11364746 C-386.38201056 315.62314997 -389.62574102 304.55004341 -386.05078125 292.38671875 C-385.67435299 289.24274747 -386.77054287 287.06451416 -387.7734375 284.0703125 C-388.58204182 274.55510814 -388.7160743 265.53012344 -383.7734375 257.0703125 C-383.37253906 256.36648438 -382.97164063 255.66265625 -382.55859375 254.9375 C-376.26743141 245.34575685 -364.84443635 240.98805668 -354.88671875 236.09765625 C-342.91455841 230.21437162 -331.7188815 223.70229052 -320.7734375 216.0703125 C-320.16580566 215.64959473 -319.55817383 215.22887695 -318.93212891 214.79541016 C-310.9121567 209.22795017 -303.23975172 203.36935788 -295.7734375 197.0703125 C-294.7242762 196.1962329 -293.67478433 195.32254997 -292.625 194.44921875 C-285.66656783 188.63718698 -278.91734377 182.63504113 -272.27832031 176.46191406 C-270.78295291 175.07911163 -269.27624938 173.7098544 -267.765625 172.34375 C-261.14376248 166.33424751 -254.73226029 160.13279404 -248.3984375 153.8203125 C-247.64933105 153.07579834 -246.90022461 152.33128418 -246.12841797 151.56420898 C-242.06300034 147.48746581 -238.19255548 143.31117223 -234.43505859 138.95019531 C-231.84637324 136.021474 -229.06799443 133.30077215 -226.2734375 130.5703125 C-222.12956902 126.47827919 -218.15046448 122.33658872 -214.37890625 117.89453125 C-212.59033122 115.86225744 -210.70224997 113.96973355 -208.7734375 112.0703125 C-206.27633785 109.61119155 -203.91285608 107.11937464 -201.6484375 104.4453125 C-197.68846525 99.82838633 -193.35481977 95.59733482 -189.01123047 91.34521484 C-185.99247057 88.37056158 -183.10144657 85.34607234 -180.33203125 82.13671875 C-176.67897882 77.9069222 -172.79806381 73.94701426 -168.8359375 70.0078125 C-168.17142578 69.33943359 -167.50691406 68.67105469 -166.82226562 67.98242188 C-162.9074587 64.07520914 -158.88288015 60.3600376 -154.69555664 56.74731445 C-151.70959732 54.14213795 -148.84348665 51.41360791 -145.9609375 48.6953125 C-140.0953019 43.21869234 -134.07562659 38.04319614 -127.7734375 33.0703125 C-126.44654932 32.00138309 -125.11973184 30.93236592 -123.79296875 29.86328125 C-89.09924061 2.14474498 -42.99862139 -29.91735066 0 0 Z " fill="#95CB74" transform="translate(387.7734375,11.9296875)"/>
<path d="M0 0 C2.72257323 2.32005401 2.72257323 2.32005401 5.00708008 1.82324219 C7.1505896 1.0298967 9.02844342 0.08888978 11.01171875 -1.046875 C24.6590931 -8.66762691 38.16080311 -14.64185092 54.0625 -14.9375 C54.70719238 -14.95651367 55.35188477 -14.97552734 56.01611328 -14.99511719 C64.55717202 -15.23242285 72.78397894 -15.320298 81.0625 -12.9375 C82.4546875 -12.55271484 82.4546875 -12.55271484 83.875 -12.16015625 C101.46678426 -6.82306545 113.63766819 3.93204648 126.74536133 16.14306641 C129.82167673 18.99194198 132.9930385 21.62822053 136.3125 24.1875 C150.79614516 35.63537314 159.42219771 51.86463717 162.0625 70.0625 C163.78569943 97.45780575 158.39893268 121.91368031 140.40234375 143.43359375 C123.66041038 162.24381271 104.76705298 174.52629897 80.0625 180.0625 C79.29091553 180.2375708 78.51933105 180.4126416 77.72436523 180.59301758 C62.92688972 183.20289976 46.20550728 182.0772859 32.0625 177.0625 C30.98097656 176.68867188 29.89945313 176.31484375 28.78515625 175.9296875 C22.51535361 173.54194425 17.49420329 170.48930119 12.31640625 166.22265625 C10.11713754 164.77901199 10.11713754 164.77901199 7.73046875 165.6328125 C6.40982422 166.34050781 6.40982422 166.34050781 5.0625 167.0625 C3.94359375 167.64644531 2.8246875 168.23039063 1.671875 168.83203125 C1.05296387 169.16130615 0.43405273 169.49058105 -0.20361328 169.82983398 C-22.10252466 181.366782 -49.25867566 185.69406361 -73.296875 178.45703125 C-93.570608 170.69123438 -107.79712649 157.25535314 -122.9375 142.0625 C-123.58332031 141.46308594 -124.22914063 140.86367188 -124.89453125 140.24609375 C-138.66098876 127.29113268 -146.51916108 109.30663397 -147.17578125 90.47265625 C-147.67678183 61.92910298 -139.12162533 37.32497678 -119.26171875 16.390625 C-118.11123047 15.23820312 -118.11123047 15.23820312 -116.9375 14.0625 C-116.11894531 13.23234375 -115.30039063 12.4021875 -114.45703125 11.546875 C-84.47451285 -17.3284603 -34.47587437 -26.05483617 0 0 Z " fill="#F7B459" transform="translate(349.9375,330.9375)"/>
<path d="M0 0 C7.433435 5.68439147 12.86382078 12.49996849 18.2265625 20.0703125 C18.68643555 20.71532715 19.14630859 21.3603418 19.62011719 22.02490234 C22.12645799 25.54514878 24.61502843 29.07745027 27.09375 32.6171875 C30.24458846 37.10935468 33.44697156 41.56293122 36.6640625 46.0078125 C37.2017627 46.75087646 37.73946289 47.49394043 38.29345703 48.25952148 C39.38612605 49.76874816 40.47906319 51.27778075 41.57226562 52.78662109 C44.35574452 56.62910362 47.13530849 60.4744122 49.9140625 64.3203125 C50.45796631 65.07304443 51.00187012 65.82577637 51.56225586 66.60131836 C55.19434013 71.63149952 58.80704488 76.67508614 62.40771484 81.7277832 C66.47176321 87.42551646 70.57174254 93.0971922 74.67382812 98.76757812 C76.19268795 100.86756693 77.70967598 102.96889811 79.2265625 105.0703125 C79.69900391 105.72169189 80.17144531 106.37307129 80.65820312 107.04418945 C83.02079253 110.31861765 85.12446459 113.60591267 87.0703125 117.14453125 C88.44727289 119.4379146 90.01508184 121.54173459 91.6015625 123.6953125 C97.47577002 132.02441271 101.09488838 141.37242916 104.6015625 150.8828125 C104.99613647 151.92223999 104.99613647 151.92223999 105.39868164 152.98266602 C107.6056752 159.19563109 108.53114917 165.37769028 105.6015625 171.5703125 C101.50584047 179.86165222 96.50136062 185.72228221 88.2265625 190.0703125 C86.89881916 190.4252583 85.56590917 190.76202792 84.2265625 191.0703125 C83.86941162 190.01755127 83.51226074 188.96479004 83.14428711 187.88012695 C81.79336386 183.90818193 80.42724094 179.94159631 79.05688477 175.97631836 C78.4701596 174.27197561 77.88735519 172.56627713 77.30883789 170.85913086 C69.96393366 149.20597165 61.30989633 131.74600839 40.4765625 120.2578125 C15.40098929 108.68447102 -10.76509212 115.86150737 -35.7734375 124.0703125 C-37.05371826 124.48555176 -37.05371826 124.48555176 -38.35986328 124.90917969 C-78.98493544 138.19943318 -116.88082034 158.49120954 -153.56884766 180.17822266 C-157.00159084 182.20502135 -160.43934856 184.22307815 -163.87890625 186.23828125 C-164.48426208 186.59298492 -165.08961792 186.9476886 -165.71331787 187.31314087 C-166.94705377 188.0359581 -168.18081857 188.75872599 -169.41461182 189.48144531 C-172.49411556 191.28536411 -175.5732783 193.08986447 -178.65234375 194.89453125 C-179.25346985 195.24679779 -179.85459595 195.59906433 -180.47393799 195.96200562 C-184.37728238 198.2499973 -188.27710815 200.54389772 -192.17578125 202.83984375 C-204.33709573 209.98852072 -216.58162588 216.94473201 -229.02148438 223.59814453 C-230.8711213 224.58761496 -232.71875287 225.58084234 -234.56445312 226.57763672 C-258.15794115 239.30226046 -282.35703119 249.55398366 -307.7734375 258.0703125 C-308.68963867 258.37839844 -309.60583984 258.68648438 -310.54980469 259.00390625 C-325.33225001 263.89942801 -340.48247354 266.95900548 -355.81494141 269.59277344 C-357.269729 269.84462402 -357.269729 269.84462402 -358.75390625 270.1015625 C-360.04977661 270.3190918 -360.04977661 270.3190918 -361.37182617 270.54101562 C-368.97097673 272.21581062 -376.08269807 276.91869181 -380.3203125 283.45703125 C-381.53772915 285.63538632 -382.68968427 287.82289796 -383.7734375 290.0703125 C-384.4334375 290.0703125 -385.0934375 290.0703125 -385.7734375 290.0703125 C-389.12220886 281.55103817 -389.38314307 270.17412785 -386.1484375 261.5078125 C-385.01953125 259.203125 -385.01953125 259.203125 -383.7734375 257.0703125 C-383.37253906 256.36648438 -382.97164063 255.66265625 -382.55859375 254.9375 C-376.26743141 245.34575685 -364.84443635 240.98805668 -354.88671875 236.09765625 C-342.91455841 230.21437162 -331.7188815 223.70229052 -320.7734375 216.0703125 C-320.16580566 215.64959473 -319.55817383 215.22887695 -318.93212891 214.79541016 C-310.9121567 209.22795017 -303.23975172 203.36935788 -295.7734375 197.0703125 C-294.7242762 196.1962329 -293.67478433 195.32254997 -292.625 194.44921875 C-285.66656783 188.63718698 -278.91734377 182.63504113 -272.27832031 176.46191406 C-270.78295291 175.07911163 -269.27624938 173.7098544 -267.765625 172.34375 C-261.14376248 166.33424751 -254.73226029 160.13279404 -248.3984375 153.8203125 C-247.64933105 153.07579834 -246.90022461 152.33128418 -246.12841797 151.56420898 C-242.06300034 147.48746581 -238.19255548 143.31117223 -234.43505859 138.95019531 C-231.84637324 136.021474 -229.06799443 133.30077215 -226.2734375 130.5703125 C-222.12956902 126.47827919 -218.15046448 122.33658872 -214.37890625 117.89453125 C-212.59033122 115.86225744 -210.70224997 113.96973355 -208.7734375 112.0703125 C-206.27633785 109.61119155 -203.91285608 107.11937464 -201.6484375 104.4453125 C-197.68846525 99.82838633 -193.35481977 95.59733482 -189.01123047 91.34521484 C-185.99247057 88.37056158 -183.10144657 85.34607234 -180.33203125 82.13671875 C-176.67897882 77.9069222 -172.79806381 73.94701426 -168.8359375 70.0078125 C-168.17142578 69.33943359 -167.50691406 68.67105469 -166.82226562 67.98242188 C-162.9074587 64.07520914 -158.88288015 60.3600376 -154.69555664 56.74731445 C-151.70959732 54.14213795 -148.84348665 51.41360791 -145.9609375 48.6953125 C-140.0953019 43.21869234 -134.07562659 38.04319614 -127.7734375 33.0703125 C-126.44654932 32.00138309 -125.11973184 30.93236592 -123.79296875 29.86328125 C-89.09924061 2.14474498 -42.99862139 -29.91735066 0 0 Z " fill="#7BBF78" transform="translate(387.7734375,11.9296875)"/>
<path d="M0 0 C1.28777344 -0.01546875 1.28777344 -0.01546875 2.6015625 -0.03125 C7.87768393 0.97938734 11.78004754 3.32899046 14.89453125 7.63671875 C15.66902399 8.81368293 16.43307019 9.99757591 17.1875 11.1875 C27.01264277 25.72146696 40.4296517 34.35325314 57.375 38.5 C59.80712851 38.73223892 62.24628639 38.90171392 64.6875 39 C71.10663429 39.26170876 76.16893185 40.63932025 81.375 44.5 C84.53664087 47.93733127 86.34474806 51.30081688 88.0625 55.625 C88.68705078 57.17574219 88.68705078 57.17574219 89.32421875 58.7578125 C92.02467809 65.80510788 93.13169563 73.86871151 90.38671875 81.10546875 C87.02137905 86.46157278 82.34634531 90.49695351 77.546875 94.5546875 C75.19693249 96.49659487 75.19693249 96.49659487 73.375 99.5 C70.69753292 99.78970316 68.18229674 99.91120297 65.5 99.9375 C49.3350137 100.49508247 31.42808889 103.45426054 17.25 111.7421875 C14.57886685 112.82177048 13.11479154 112.32962668 10.375 111.5 C8.25483084 110.59927454 6.15195692 109.65734193 4.0625 108.6875 C-8.14042926 103.23205349 -21.34072851 100.20934266 -34.7265625 100.54296875 C-36.28514327 100.56537494 -37.84373797 100.58682836 -39.40234375 100.60742188 C-41.81794284 100.64425842 -44.23280202 100.68707452 -46.64794922 100.74682617 C-56.06317049 100.96805392 -63.92999483 100.60466932 -72.92578125 97.41040039 C-83.8223041 93.73518931 -96.61445673 96.7581877 -106.625 101.625 C-121.58341543 109.32226335 -131.51602136 120.21692801 -136.79296875 136.3125 C-137.4721388 138.91439089 -137.83556859 141.08905369 -137.9375 143.75 C-138.83352694 148.63741965 -141.13846936 150.90508816 -144.3125 154.62890625 C-156.59457909 169.87777134 -163.91533912 188.46358235 -167.625 207.5 C-167.84929687 208.43714844 -168.07359375 209.37429688 -168.3046875 210.33984375 C-171.60093514 224.99234183 -169.7118153 240.00994955 -166.625 254.5 C-166.20631567 256.49957859 -165.78928677 258.49950567 -165.375 260.5 C-165.20484375 261.263125 -165.0346875 262.02625 -164.859375 262.8125 C-164.74335938 263.6478125 -164.74335938 263.6478125 -164.625 264.5 C-166.52327044 266.39827044 -169.65464174 265.7614668 -172.1875 265.8125 C-182.96652062 265.66037673 -187.56876741 261.64356005 -195.41064453 254.72167969 C-201.23881771 249.71458881 -207.55040884 246.470116 -214.625 243.5 C-215.52347656 243.11714844 -216.42195313 242.73429688 -217.34765625 242.33984375 C-222.98530229 240.89515496 -228.77498941 241.14011942 -234.5703125 241.109375 C-240.41447149 240.96605775 -244.07423302 240.53741827 -248.625 236.5 C-252.01910118 232.75189755 -253.63390442 229.33839791 -255.203125 224.546875 C-255.41942566 223.88721741 -255.63572632 223.22755981 -255.85858154 222.5479126 C-256.31084923 221.15786965 -256.75764445 219.7660354 -257.19921875 218.37255859 C-257.87043676 216.26433265 -258.56671705 214.16559106 -259.265625 212.06640625 C-264.53981264 195.87671461 -264.53981264 195.87671461 -261.3125 188.5 C-259.07233107 185.58778039 -256.18754886 183.50896696 -253.3125 181.25 C-239.3340123 170.11553972 -233.06952207 153.60172732 -230.8125 136.3125 C-229.81697264 130.21987258 -227.81956874 126.02702014 -223.625 121.5 C-217.21203417 116.89953661 -210.00663901 113.72196015 -202.8125 110.5625 C-178.82488706 99.75894733 -156.08487237 87.16492849 -133.625 73.5 C-131.60440135 72.27825762 -129.58357412 71.05689318 -127.5625 69.8359375 C-118.48673117 64.34133626 -109.45218234 58.78162564 -100.4375 53.1875 C-72.44099301 35.83469082 -44.40370816 18.68382776 -14.625 4.5 C-13.82529785 4.11295898 -13.0255957 3.72591797 -12.20166016 3.32714844 C-8.06859283 1.3915711 -4.64967283 -0.0561894 0 0 Z " fill="#ABD791" transform="translate(341.625,185.5)"/>
<path d="M0 0 C10.86969495 3.63193632 19.48669843 9.01797869 28.09912109 16.55200195 C28.73720703 17.10629883 29.37529297 17.6605957 30.03271484 18.23168945 C42.74442918 30.06575759 51.22146874 49.44877972 52.22314453 66.6862793 C52.58045552 77.39016969 52.20353085 87.22646515 49.09912109 97.55200195 C48.84388672 98.56907227 48.58865234 99.58614258 48.32568359 100.6340332 C44.62366434 114.40622409 37.5233736 126.91045016 28.09912109 137.55200195 C27.58349609 138.20942383 27.06787109 138.8668457 26.53662109 139.54418945 C15.90013772 152.78661126 0.11666927 162.01175942 -15.46337891 168.17700195 C-16.46377197 168.58559448 -16.46377197 168.58559448 -17.484375 169.00244141 C-20.47692297 170.1144701 -22.45546441 170.65657753 -25.59619141 169.91918945 C-28.03363963 168.47324559 -30.09514275 166.93487854 -32.21337891 165.05200195 C-32.91076172 164.44356445 -33.60814453 163.83512695 -34.32666016 163.20825195 C-35.90087891 161.55200195 -35.90087891 161.55200195 -35.90087891 159.55200195 C-36.89087891 159.22200195 -37.88087891 158.89200195 -38.90087891 158.55200195 C-42.1447102 155.08814334 -44.99918008 151.30428252 -47.90087891 147.55200195 C-48.51576172 146.7630957 -49.13064453 145.97418945 -49.76416016 145.16137695 C-58.12132004 133.86480221 -63.79724496 121.22642873 -66.90087891 107.55200195 C-67.07603027 106.82513184 -67.25118164 106.09826172 -67.43164062 105.34936523 C-75.34612481 70.09778672 -61.66029815 33.56666128 -43.26904297 3.92163086 C-34.54869415 -9.48147652 -13.55205597 -4.2074029 0 0 Z " fill="#F7EB7E" transform="translate(327.90087890625,319.447998046875)"/>
<path d="M0 0 C-1.41639212 3.91465158 -3.28969101 7.14461774 -5.5625 10.625 C-23.69430137 39.45485751 -34.94409059 75.67715284 -27.375 109.6875 C-23.00546422 127.28652368 -14.62545456 142.12760885 -3 156 C-2.30390625 156.8971875 -1.6078125 157.794375 -0.890625 158.71875 C0.79613079 161.06610364 0.79613079 161.06610364 3 162 C3 162.66 3 163.32 3 164 C3.59683594 164.26167969 4.19367188 164.52335938 4.80859375 164.79296875 C7.10640953 166.0586106 8.32283578 167.37706794 10.0625 169.3125 C12.29896501 171.23284021 13.36003673 171.99892983 16.3359375 172.00390625 C40.476005 166.16824429 62.15644435 148.09533505 75.1875 127.625 C82.0024921 116.12216046 86.20013404 104.97989143 89 92 C89.29003906 90.81664062 89.29003906 90.81664062 89.5859375 89.609375 C92.82347763 69.20676363 87.98463285 48.275882 76.390625 31.34765625 C75 29 75 29 75 26 C75.92941406 26.86882812 76.85882813 27.73765625 77.81640625 28.6328125 C79.06503581 29.79694833 80.3137376 30.96100668 81.5625 32.125 C82.17158203 32.69476563 82.78066406 33.26453125 83.40820312 33.8515625 C86.43887072 36.67377147 89.49158483 39.42353218 92.68359375 42.0625 C100.14544791 48.42064122 104.97276965 57.28271945 108.9375 66.125 C109.21980469 66.74487793 109.50210938 67.36475586 109.79296875 68.00341797 C118.05571702 87.49074523 115.72702138 111.80342516 108 131 C97.33535326 156.06823028 77.18331715 177.24524907 52.13964844 188.14355469 C30.51312835 196.80008509 3.77062512 199.25334753 -18.06445312 190.13818359 C-35.65941931 182.41327036 -48.58705163 169.45944039 -62 156 C-62.64582031 155.40058594 -63.29164063 154.80117188 -63.95703125 154.18359375 C-77.72348876 141.22863268 -85.58166108 123.24413397 -86.23828125 104.41015625 C-86.73928183 75.86660298 -78.18412533 51.26247678 -58.32421875 30.328125 C-57.17373047 29.17570312 -57.17373047 29.17570312 -56 28 C-55.18144531 27.16984375 -54.36289063 26.3396875 -53.51953125 25.484375 C-40.0979408 12.55841197 -19.08576387 0 0 0 Z " fill="#F6CE70" transform="translate(289,317)"/>
<path d="M0 0 C1.08539063 -0.03738281 2.17078125 -0.07476562 3.2890625 -0.11328125 C6.87560993 0.03877385 9.8515722 1.13222362 13.22265625 2.328125 C21.57122388 5.02578734 29.52714547 4.65179012 38.1875 4.375 C53.29774451 3.92378134 67.20926881 4.86841193 81.5 10.3125 C82.53253906 10.68375 82.53253906 10.68375 83.5859375 11.0625 C86.74626167 12.22048137 89.59383364 13.43293915 92.5546875 15.0625 C95.88548599 16.53875418 96.97057826 16.46468561 100.375 15.3125 C102.65927683 14.40824912 104.92889014 13.46657735 107.1875 12.5 C135.20287218 0.8863421 167.8842059 0.93389355 195.9609375 12.36328125 C210.64227577 18.68114837 222.11267595 28.21333736 233.80859375 38.9609375 C239.54328574 44.21555634 245.46139831 49.26129856 251.375 54.3125 C246.48437403 64.81828912 240.86160978 70.91514903 229.92578125 75.29296875 C226.66147757 75.31796342 225.37650372 74.04816868 223.07568359 71.8449707 C222.57633301 71.33925537 222.07698242 70.83354004 221.5625 70.3125 C220.49665709 69.28457181 219.43025077 68.25722749 218.36328125 67.23046875 C217.84975098 66.72692871 217.3362207 66.22338867 216.80712891 65.70458984 C213.78536066 62.76730335 210.58307699 60.04223549 207.375 57.3125 C206.29412109 56.36117187 206.29412109 56.36117187 205.19140625 55.390625 C187.58405528 40.47208132 168.0121782 35.84319265 145.375 36.3125 C143.91320312 36.33763672 143.91320312 36.33763672 142.421875 36.36328125 C126.93089306 37.19485237 113.51716878 43.79324423 100.3034668 51.36035156 C98.28327117 52.35778959 96.61069311 53.01039451 94.375 53.3125 C92.09048579 52.01982834 90.06032348 50.70681584 87.9375 49.1875 C81.39698151 44.7557201 74.92662003 41.73167476 67.375 39.3125 C66.49328125 38.99410156 65.6115625 38.67570312 64.703125 38.34765625 C43.79299925 31.79057924 19.40030943 36.63285605 0.265625 46.31201172 C-14.28529844 54.0121259 -29.76341495 65.51422226 -37.625 80.3125 C-42.4424322 80.16651721 -44.7778173 77.74204322 -47.9140625 74.4140625 C-55.39807442 65.22137206 -56.63472959 55.94220901 -55.625 44.3125 C-52.35888663 29.60702369 -43.28042895 17.57089035 -30.73828125 9.44140625 C-20.56746831 3.30318665 -11.94196306 0.39630408 0 0 Z " fill="#95CC74" transform="translate(258.625,280.6875)"/>
<path d="M0 0 C0.928125 0.25652344 1.85625 0.51304687 2.8125 0.77734375 C16.70172679 4.99113261 27.43785818 12.33086725 38 22 C38.55429687 22.50015625 39.10859375 23.0003125 39.6796875 23.515625 C41.45232114 25.50852673 42.67116223 27.68986664 44 30 C44.54398437 30.85335937 45.08796875 31.70671875 45.6484375 32.5859375 C57.31873132 51.4379506 60.39853178 74.18725556 55.9765625 95.91796875 C49.19864849 123.25795436 31.10113072 147.46824925 7 162 C-14.58314702 173.94363938 -14.58314702 173.94363938 -22.33203125 172.59375 C-22.88246094 172.3978125 -23.43289063 172.201875 -24 172 C-23.57589844 171.41734375 -23.15179688 170.8346875 -22.71484375 170.234375 C-3.13362352 142.86370233 5.98234177 111.19631984 1.5 77.515625 C0.83551949 73.93649133 0.00573326 70.49767155 -1 67 C-1.49306641 65.19982422 -1.49306641 65.19982422 -1.99609375 63.36328125 C-9.20498895 39.49161098 -24.43711816 20.9144378 -43.609375 5.3671875 C-45 4 -45 4 -46 1 C-31.79288432 -3.0208818 -14.32086486 -4.12195946 0 0 Z " fill="#F6CE70" transform="translate(431,318)"/>
<path d="M0 0 C3.38271013 1.53759551 6.09132991 3.70923392 9 6 C26.69736072 18.39630797 44.59732728 21.98758873 65.703125 18.453125 C70.76147273 17.75790185 75.91416619 17.42836909 81 18 C81.99 18.99 81.99 18.99 83 20 C82.28158936 20.12528076 81.56317871 20.25056152 80.82299805 20.37963867 C14.56394103 32.03138289 -44.86425575 62.78007527 -101.8046875 97.76953125 C-102.4499942 98.16528854 -103.0953009 98.56104584 -103.76016235 98.96879578 C-106.91086783 100.90266731 -110.05508281 102.84596246 -113.18994141 104.80541992 C-114.31319824 105.49869385 -115.43645508 106.19196777 -116.59375 106.90625 C-117.59083984 107.52822266 -118.58792969 108.15019531 -119.61523438 108.79101562 C-120.40220703 109.18998047 -121.18917969 109.58894531 -122 110 C-122.66 109.67 -123.32 109.34 -124 109 C-123.43152344 108.443125 -122.86304688 107.88625 -122.27734375 107.3125 C-118.56102425 103.63960995 -114.90098947 99.96915477 -111.5 96 C-108.95308392 93.02859791 -106.28621141 90.2485599 -103.5 87.5 C-100.73439592 84.77170593 -98.08712969 82.01483166 -95.5625 79.0625 C-92.12563389 75.05149384 -88.40799257 71.37094014 -84.625 67.6875 C-82.59087102 65.60493938 -80.69202253 63.50793154 -78.79858398 61.30297852 C-75.21678541 57.19542098 -71.45631059 53.31126954 -67.59765625 49.46484375 C-66.91626083 48.78249161 -66.23486542 48.10013947 -65.53282166 47.39710999 C-64.10294259 45.96655563 -62.67182089 44.53724233 -61.23950195 43.10913086 C-59.06802289 40.94300926 -56.90193675 38.77159826 -54.73632812 36.59960938 C-53.33625798 35.20020013 -51.93587762 33.80110116 -50.53515625 32.40234375 C-49.58008934 31.44424049 -49.58008934 31.44424049 -48.60572815 30.46678162 C-44.77522305 26.65583123 -40.83078733 23.02980867 -36.73724365 19.50256348 C-34.50649975 17.57316554 -32.35092713 15.56679588 -30.1875 13.5625 C-20.69977757 4.98677569 -13.22784104 -1.7025934 0 0 Z " fill="#94CB74" transform="translate(308,75)"/>
<path d="M0 0 C0.99 0.495 0.99 0.495 2 1 C-2.9768667 6.00237575 -7.95777154 11.00070483 -12.94140625 15.99633789 C-14.63372911 17.69366667 -16.3251505 19.39189477 -18.015625 21.09106445 C-20.45592369 23.54359341 -22.89952506 25.99279096 -25.34375 28.44140625 C-26.08991577 29.19273331 -26.83608154 29.94406036 -27.6048584 30.71815491 C-32.23885904 35.35264158 -37.01632355 39.74492648 -42 44 C-43.15273819 44.99693994 -44.30514359 45.99426497 -45.45703125 46.9921875 C-51.02297273 51.78209262 -56.60813519 56.54968162 -62.25 61.25 C-63.12140625 61.97703125 -63.9928125 62.7040625 -64.890625 63.453125 C-67 65 -67 65 -69 65 C-69.28875 65.5775 -69.5775 66.155 -69.875 66.75 C-70.24625 67.4925 -70.6175 68.235 -71 69 C-71.25088379 69.66209473 -71.50176758 70.32418945 -71.76025391 71.00634766 C-73.44169906 73.7103022 -74.97758259 74.10571664 -77.9609375 75.1484375 C-79.48847656 75.69226074 -79.48847656 75.69226074 -81.046875 76.24707031 C-82.14515625 76.61928711 -83.2434375 76.99150391 -84.375 77.375 C-85.50679688 77.7678418 -86.63859375 78.16068359 -87.8046875 78.56542969 C-91.19644234 79.73134541 -94.59588623 80.87073601 -98 82 C-98.90266602 82.30260742 -99.80533203 82.60521484 -100.73535156 82.91699219 C-115.53203481 87.81828476 -130.69418637 90.88614214 -146.04150391 93.52246094 C-147.0113623 93.69036133 -147.9812207 93.85826172 -148.98046875 94.03125 C-150.27633911 94.2487793 -150.27633911 94.2487793 -151.59838867 94.47070312 C-159.19753923 96.14549812 -166.30926057 100.84837931 -170.546875 107.38671875 C-171.76429165 109.56507382 -172.91624677 111.75258546 -174 114 C-174.66 114 -175.32 114 -176 114 C-179.34877136 105.48072567 -179.60970557 94.10381535 -176.375 85.4375 C-175.24609375 83.1328125 -175.24609375 83.1328125 -174 81 C-173.39865234 79.94425781 -173.39865234 79.94425781 -172.78515625 78.8671875 C-168.78592581 72.76981007 -163.28371332 69.47514062 -157 66 C-156.35047363 65.63777344 -155.70094727 65.27554688 -155.03173828 64.90234375 C-152.92932772 63.74334143 -150.81269315 62.61661863 -148.6875 61.5 C-148.01799316 61.13712891 -147.34848633 60.77425781 -146.65869141 60.40039062 C-143.55393548 58.82518926 -141.60946476 57.89657035 -138.12133789 58.48852539 C-134.69866315 59.04937823 -132.68012752 58.69375572 -129.359375 57.77734375 C-128.29847656 57.48956055 -127.23757812 57.20177734 -126.14453125 56.90527344 C-124.46423828 56.42622559 -124.46423828 56.42622559 -122.75 55.9375 C-121.58339844 55.61168945 -120.41679688 55.28587891 -119.21484375 54.95019531 C-115.8038187 53.98649612 -112.40057379 52.99989349 -109 52 C-108.15759766 51.75330566 -107.31519531 51.50661133 -106.44726562 51.25244141 C-92.19501912 46.99475332 -78.59288041 40.99087825 -65 35 C-64.18611816 34.64147949 -63.37223633 34.28295898 -62.53369141 33.91357422 C-49.97697527 28.32445706 -37.99907456 21.68484367 -26 15 C-24.8764209 14.37593262 -23.7528418 13.75186523 -22.59521484 13.10888672 C-19.1238071 11.18064192 -15.65518523 9.24743261 -12.1875 7.3125 C-11.08921875 6.70003418 -9.9909375 6.08756836 -8.859375 5.45654297 C-7.84746094 4.8895166 -6.83554688 4.32249023 -5.79296875 3.73828125 C-4.43981567 2.98091675 -4.43981567 2.98091675 -3.05932617 2.20825195 C-1.07808876 1.16210577 -1.07808876 1.16210577 0 0 Z " fill="#71B56B" transform="translate(178,188)"/>
<path d="M0 0 C27.14932339 -0.82409413 52.26002617 6.53351344 72.33984375 25.171875 C74.26640413 27.0804972 76.1378747 29.02885097 78 31 C78.86625 31.825 79.7325 32.65 80.625 33.5 C90.15315701 43.52963896 95.79737225 56.12627117 100.5 69 C100.75523437 69.68118896 101.01046875 70.36237793 101.2734375 71.06420898 C103.41186058 77.20992278 104.25905476 83.40362409 101.375 89.5 C97.27927797 97.79133972 92.27479812 103.65196971 84 108 C82.67225666 108.3549458 81.33934667 108.69171542 80 109 C79.64284912 107.94723877 79.28569824 106.89447754 78.91772461 105.80981445 C77.56680136 101.83786943 76.20067844 97.87128381 74.83032227 93.90600586 C74.2435971 92.20166311 73.66079269 90.49596463 73.08227539 88.78881836 C65.75017587 67.17340807 57.09025862 49.38632259 36.0625 38.1875 C30.27112194 35.46659155 24.14785733 33.72486906 18 32 C17.96003906 31.28457031 17.92007812 30.56914063 17.87890625 29.83203125 C16.73698207 18.93440914 11.21802527 10.31379503 2.9375 3.25 C1.968125 2.5075 0.99875 1.765 0 1 C0 0.67 0 0.34 0 0 Z " fill="#71B56B" transform="translate(392,94)"/>
<path d="M0 0 C32.28588209 1.81488686 54.72982828 12.86659896 78.43359375 34.6484375 C84.16828574 39.90305634 90.08639831 44.94879856 96 50 C91.10937403 60.50578912 85.48660978 66.60264903 74.55078125 70.98046875 C71.28647757 71.00546342 70.00150372 69.73566868 67.70068359 67.5324707 C67.20133301 67.02675537 66.70198242 66.52104004 66.1875 66 C65.12165709 64.97207181 64.05525077 63.94472749 62.98828125 62.91796875 C62.47475098 62.41442871 61.9612207 61.91088867 61.43212891 61.39208984 C58.41036066 58.45480335 55.20807699 55.72973549 52 53 C51.27941406 52.36578125 50.55882812 51.7315625 49.81640625 51.078125 C34.45670673 38.06399535 17.02604545 32.36356561 -2.9375 31.4375 C-3.81212891 31.39431641 -4.68675781 31.35113281 -5.58789062 31.30664062 C-7.72511995 31.20153099 -9.86254238 31.10036015 -12 31 C-10.02214003 19.45822086 -6.40098134 9.83617466 0 0 Z " fill="#7CBF78" transform="translate(414,285)"/>
<path d="M0 0 C2.5625 2.25 2.5625 2.25 5 5 C5.70125 5.78375 6.4025 6.5675 7.125 7.375 C10.88878991 12.64430587 12.17343818 16.32761027 12.078125 22.7421875 C12.06120605 24.22114502 12.06120605 24.22114502 12.04394531 25.72998047 C12.02944336 26.47908691 12.01494141 27.22819336 12 28 C11.41734375 28.11480713 10.8346875 28.22961426 10.234375 28.34790039 C-17.54892945 33.93677856 -41.2757003 45.09315653 -59 68 C-60.86303105 70.79143463 -60.86303105 70.79143463 -62 73 C-66.8174322 72.85401721 -69.1528173 70.42954322 -72.2890625 67.1015625 C-76.27330037 62.20768128 -78.95591495 57.23439248 -80 51 C-80.309375 49.4221875 -80.309375 49.4221875 -80.625 47.8125 C-79.61064864 41.62495671 -75.38314452 38.25884639 -71 34 C-70.21882812 33.23300781 -69.43765625 32.46601563 -68.6328125 31.67578125 C-55.84894952 19.66733291 -19.10324236 -7.74455771 0 0 Z " fill="#7CBF78" transform="translate(283,288)"/>
<path d="M0 0 C0.32871094 1.00417969 0.65742188 2.00835937 0.99609375 3.04296875 C5.2275933 15.41512535 10.88453241 25.86256304 20.78515625 34.73046875 C22 36 22 36 22 38 C17.94201553 39.98852418 13.87788851 41.96416266 9.8125 43.9375 C8.66201172 44.50146484 7.51152344 45.06542969 6.32617188 45.64648438 C4.65844727 46.45375977 4.65844727 46.45375977 2.95703125 47.27734375 C1.93585205 47.77484131 0.91467285 48.27233887 -0.13745117 48.78491211 C-2.79060301 49.91111567 -5.16150655 50.55997652 -8 51 C-29 25.603125 -29 25.603125 -29 13 C-25.19380871 11.14361774 -21.38518959 9.2923437 -17.57421875 7.44580078 C-16.27763717 6.81667289 -14.98173413 6.18614459 -13.68652344 5.55419922 C-11.82662989 4.64703828 -9.96436859 3.74491197 -8.1015625 2.84375 C-6.98088379 2.29912109 -5.86020508 1.75449219 -4.70556641 1.19335938 C-2 0 -2 0 0 0 Z " fill="#7CBF78" transform="translate(206,437)"/>
<path d="M0 0 C3.65412957 1.39015799 7.04782559 3.04458885 10.5 4.875 C21.10257753 10.22864717 31.9314018 13.18336601 43.8125 13.1875 C44.55097168 13.19612061 45.28944336 13.20474121 46.05029297 13.21362305 C49.93834678 13.20909344 53.55539818 12.97234363 57.36328125 12.1640625 C68.64720942 9.83181029 68.64720942 9.83181029 74.05078125 13.10546875 C77.31864449 15.40675805 80.33102266 17.97792983 83.33251953 20.61279297 C86.37039553 23.14005672 89.80167046 24.96561542 93.2421875 26.87890625 C95 28 95 28 96 30 C73.86706337 36.87307459 48.95881589 34.71928122 28.50952148 24.1237793 C23.20370486 21.23933845 18.49546179 18.05109984 14 14 C13.14365967 13.22970459 13.14365967 13.22970459 12.27001953 12.44384766 C8.11816971 8.69273518 3.99355139 4.91970194 0 1 C0 0.67 0 0.34 0 0 Z " fill="#F8B458" transform="translate(234,479)"/>
<path d="M0 0 C1.37695273 0.28230412 2.75165856 0.57562107 4.125 0.875 C10.01482098 1.91481707 15.72867329 2.02516042 21.6875 2 C22.60724609 2.00386719 23.52699219 2.00773437 24.47460938 2.01171875 C29.13829751 2.00501323 33.53829728 1.8366049 38.125 0.875 C36.46537446 4.93077129 33.6215073 7.89132392 30.6875 11.0625 C30.19701172 11.60841797 29.70652344 12.15433594 29.20117188 12.71679688 C26.87917283 15.24561365 25.43365193 16.77211602 22.125 17.875 C22.125 18.535 22.125 19.195 22.125 19.875 C10.20663307 17.353807 0.65295165 12.43359157 -8.875 4.875 C-5.93985186 1.11434144 -4.90063133 -0.15808488 0 0 Z " fill="#E59C4C" transform="translate(367.875,490.125)"/>
</svg>
